<?xml version="1.0" encoding="UTF-8" standalone="no"?>
<svg
   version="1.1"
   width="125"
   height="125"
   style="clip-rule:evenodd;fill-rule:evenodd;image-rendering:optimizeQuality;shape-rendering:geometricPrecision;text-rendering:geometricPrecision"
   id="svg195"
   sodipodi:docname="logo_Wp.svg"
   inkscape:version="1.4.2 (f4327f4, 2025-05-13)"
   inkscape:export-filename="logo.png"
   inkscape:export-xdpi="96"
   inkscape:export-ydpi="96"
   xmlns:inkscape="http://www.inkscape.org/namespaces/inkscape"
   xmlns:sodipodi="http://sodipodi.sourceforge.net/DTD/sodipodi-0.dtd"
   xmlns="http://www.w3.org/2000/svg"
   xmlns:svg="http://www.w3.org/2000/svg">
  <defs
     id="defs195" />
  <sodipodi:namedview
     id="namedview195"
     pagecolor="#ffffff"
     bordercolor="#000000"
     borderopacity="0.25"
     inkscape:showpageshadow="2"
     inkscape:pageopacity="0.0"
     inkscape:pagecheckerboard="0"
     inkscape:deskcolor="#d1d1d1"
     inkscape:zoom="3.7892099"
     inkscape:cx="47.635261"
     inkscape:cy="84.582277"
     inkscape:window-width="1920"
     inkscape:window-height="991"
     inkscape:window-x="-9"
     inkscape:window-y="-9"
     inkscape:window-maximized="1"
     inkscape:current-layer="svg195"
     inkscape:export-bgcolor="#202051ff"
     showguides="true" />
  <g
     id="g5"
     style="fill:#ffffff;stroke-width:1.86278"
     transform="matrix(0.53683091,0,0,0.53683091,-30.54767,6.8607706)" />
  <g
     id="g6"
     transform="matrix(0.53683091,0,0,0.53683091,-30.54767,6.8607706)"
     style="stroke-width:1.86278" />
  <g
     id="g7"
     style="fill:#ffffff;stroke-width:1.86278"
     transform="matrix(0.53683091,0,0,0.53683091,-30.54767,6.8607706)" />
  <g
     id="g9"
     transform="matrix(0.53683091,0,0,0.53683091,-30.54767,6.8607706)"
     style="stroke-width:1.86278" />
  <g
     id="g10"
     style="fill:#ffffff;stroke-width:1.86278"
     transform="matrix(0.53683091,0,0,0.53683091,-30.54767,6.8607706)" />
  <g
     id="g11"
     style="fill:#ffffff;stroke-width:1.86278"
     transform="matrix(0.53683091,0,0,0.53683091,-30.54767,6.8607706)" />
  <g
     id="g13"
     style="fill:#ffffff;stroke-width:1.86278"
     transform="matrix(0.53683091,0,0,0.53683091,-30.54767,6.8607706)" />
  <g
     id="g15"
     transform="matrix(0.53683091,0,0,0.53683091,-30.54767,6.8607706)"
     style="stroke-width:1.86278" />
  <g
     id="g16"
     style="fill:#ffffff;stroke-width:1.86278"
     transform="matrix(0.53683091,0,0,0.53683091,-30.54767,6.8607706)" />
  <g
     id="g18"
     style="fill:#5555ff;stroke-width:3.0808"
     transform="matrix(0.32459044,0,0,0.32459044,-29.168107,-5.0066521)">
    <path
       style="opacity:1;fill:#5555ff;stroke-width:3.0808"
       fill="#23e7d0"
       d="m 340.5,129.5 c -2.652,3.484 -5.818,6.484 -9.5,9 -4.907,-3.876 -9.741,-7.876 -14.5,-12 -1.788,0.783 -2.788,2.116 -3,4 -7.298,6.797 -14.465,13.797 -21.5,21 -0.667,-4.333 -0.667,-8.667 0,-13 8.042,-7.874 15.875,-15.874 23.5,-24 5,4 10,8 15,12 2.354,-1.688 4.354,-3.688 6,-6 2,-2.333 4,-4.667 6,-7 2.768,-3.271 5.768,-6.438 9,-9.5 -1.484,-1.574 -3.151,-2.907 -5,-4 6.172,-2.1404 12.505,-3.6404 19,-4.5 -0.885,5.974 -1.551,11.974 -2,18 -2.429,-0.085 -4.429,-1.085 -6,-3 -6.06,6.055 -11.726,12.389 -17,19 z"
       id="path18" />
  </g>
  <g
     id="g20"
     style="fill:#d5d5ff;stroke-width:3.0808"
     transform="matrix(0.32459044,0,0,0.32459044,-29.168107,-5.0066521)">
    <path
       style="opacity:1;fill:#d5d5ff;stroke-width:3.0808"
       fill="#2bddcb"
       d="m 386.5,122.5 c -4.679,0.166 -9.345,-0.001 -14,-0.5 -4.95,-0.531 -5.784,-2.364 -2.5,-5.5 10.84,4.515 20.507,2.515 29,-6 9.388,-13.5043 8.221,-26.0043 -3.5,-37.5 -12.752,-6.9973 -24.585,-5.8307 -35.5,3.5 -2.324,2.9799 -3.824,6.3133 -4.5,10 -1,0 -2,0 -3,0 0,-1 0,-2 0,-3 3.183,-9.3488 9.516,-15.5154 19,-18.5 17.9,-3.1383 30.066,3.6951 36.5,20.5 3.045,18.42 -4.122,30.753 -21.5,37 z"
       id="path20" />
  </g>
  <g
     id="g21"
     style="fill:#ffffff;stroke-width:1.86278"
     transform="matrix(0.53683091,0,0,0.53683091,-30.54767,6.8607706)" />
  <g
     id="g23"
     style="fill:#d4aa00;stroke-width:3.0808"
     transform="matrix(0.32459044,0,0,0.32459044,-29.168107,-5.0066521)">
    <path
       style="opacity:1;fill:#d4aa00;stroke-width:3.0808"
       fill="#25cfc8"
       d="m 259.5,85.5 c 5.516,-0.0266 6.849,2.14 4,6.5 -4.93,0.427 -6.263,-1.7396 -4,-6.5 z"
       id="path23" />
  </g>
  <g
     id="g24"
     style="fill:#d4aa00;stroke-width:3.0808"
     transform="matrix(0.32459044,0,0,0.32459044,-29.168107,-5.0066521)">
    <path
       style="opacity:1;fill:#d4aa00;stroke-width:3.0808"
       fill="#24ccc2"
       d="m 228.5,85.5 c 6.504,-0.3623 8.171,2.1377 5,7.5 -5.715,0.401 -7.381,-2.099 -5,-7.5 z"
       id="path24" />
  </g>
  <g
     id="g25"
     style="fill:#ffffff;stroke-width:1.86278"
     transform="matrix(0.53683091,0,0,0.53683091,-30.54767,6.8607706)" />
  <g
     id="g27"
     style="fill:#ffffff;stroke-width:1.86278"
     transform="matrix(0.53683091,0,0,0.53683091,-30.54767,6.8607706)" />
  <g
     id="g28"
     style="fill:#d4aa00;stroke-width:3.0808"
     transform="matrix(0.32459044,0,0,0.32459044,-29.168107,-5.0066521)">
    <path
       style="opacity:1;fill:#d4aa00;stroke-width:3.0808"
       fill="#1ecbc0"
       d="m 238.5,113.5 c 5.516,-0.027 6.849,2.14 4,6.5 -4.93,0.427 -6.263,-1.74 -4,-6.5 z"
       id="path28" />
  </g>
  <g
     id="g29"
     style="fill:#ffffff;stroke-width:1.86278"
     transform="matrix(0.53683091,0,0,0.53683091,-30.54767,6.8607706)" />
  <g
     id="g30"
     transform="matrix(0.53683091,0,0,0.53683091,-30.54767,6.8607706)"
     style="stroke-width:1.86278" />
  <g
     id="g31"
     transform="matrix(0.53683091,0,0,0.53683091,-30.54767,6.8607706)"
     style="stroke-width:1.86278" />
  <g
     id="g32"
     style="fill:#ffffff;stroke-width:1.86278"
     transform="matrix(0.53683091,0,0,0.53683091,-30.54767,6.8607706)" />
  <g
     id="g33"
     transform="matrix(0.53683091,0,0,0.53683091,-30.54767,6.8607706)"
     style="stroke-width:1.86278" />
  <g
     id="g35"
     style="fill:#d4aa00;stroke-width:3.0808"
     transform="matrix(0.32459044,0,0,0.32459044,-29.168107,-5.0066521)">
    <path
       style="opacity:1;fill:#d4aa00;stroke-width:3.0808"
       fill="#23e1cd"
       d="m 379.5,79.5 c 0.876,-0.1309 1.543,0.2025 2,1 0.907,2.5567 1.907,5.0567 3,7.5 10.889,-0.6132 12.056,1.5535 3.5,6.5 -0.473,3.4514 0.027,6.785 1.5,10 -0.333,0.333 -0.667,0.667 -1,1 -2.667,-1.667 -5.333,-3.333 -8,-5 -2.667,1.667 -5.333,3.333 -8,5 -0.333,-0.5 -0.667,-1 -1,-1.5 1.237,-3.098 1.737,-6.265 1.5,-9.5 -2.445,-1.4771 -4.612,-3.3104 -6.5,-5.5 7.93,1.4326 12.263,-1.7341 13,-9.5 z"
       id="path35" />
  </g>
  <g
     id="g36"
     style="fill:#d5d5ff;stroke-width:3.0808"
     transform="matrix(0.32459044,0,0,0.32459044,-29.168107,-5.0066521)">
    <path
       style="opacity:1;fill:#d5d5ff;stroke-width:3.0808"
       fill="#21e9d3"
       d="m 357.5,123.5 c 4.739,2.116 9.572,4.116 14.5,6 0.5,18.33 0.667,36.664 0.5,55 -5,0 -10,0 -15,0 0,-20.333 0,-40.667 0,-61 z"
       id="path36" />
  </g>
  <g
     id="g37"
     style="fill:#ffffff;stroke-width:1.86278"
     transform="matrix(0.53683091,0,0,0.53683091,-30.54767,6.8607706)" />
  <g
     id="g38"
     transform="matrix(0.53683091,0,0,0.53683091,-30.54767,6.8607706)"
     style="stroke-width:1.86278" />
  <g
     id="g40"
     style="fill:#ffffff;stroke-width:1.86278"
     transform="matrix(0.53683091,0,0,0.53683091,-30.54767,6.8607706)" />
  <g
     id="g41"
     transform="matrix(0.53683091,0,0,0.53683091,-30.54767,6.8607706)"
     style="stroke-width:1.86278" />
  <g
     id="g42"
     style="fill:#ffffff;stroke-width:1.86278"
     transform="matrix(0.53683091,0,0,0.53683091,-30.54767,6.8607706)" />
  <g
     id="g44"
     style="fill:#ffffff;stroke-width:1.86278"
     transform="matrix(0.53683091,0,0,0.53683091,-30.54767,6.8607706)" />
  <g
     id="g45"
     transform="matrix(0.53683091,0,0,0.53683091,-30.54767,6.8607706)"
     style="stroke-width:1.86278" />
  <g
     id="g48"
     style="fill:#ffffff;stroke-width:1.86278"
     transform="matrix(0.53683091,0,0,0.53683091,-30.54767,6.8607706)" />
  <g
     id="g49"
     style="fill:#ffffff;stroke-width:1.86278"
     transform="matrix(0.53683091,0,0,0.53683091,-30.54767,6.8607706)" />
  <g
     id="g50"
     style="fill:#ffffff;stroke-width:1.86278"
     transform="matrix(0.53683091,0,0,0.53683091,-30.54767,6.8607706)" />
  <g
     id="g51"
     transform="matrix(0.53683091,0,0,0.53683091,-30.54767,6.8607706)"
     style="stroke-width:1.86278" />
  <g
     id="g52"
     style="fill:#ffffff;stroke-width:3.0808"
     transform="matrix(0.32459044,0,0,0.32459044,-29.168107,-5.0066521)">
    <path
       id="path52"
       style="opacity:1;fill:#ffffff;stroke-width:3.0808"
       d="m 271.5,159.5 c 1,0 2,0 3,0 -0.069,2.584 -1.235,4.584 -3.5,6 -0.498,3.317 -0.665,6.65 -0.5,10 -1.333,0 -2.667,0 -4,0 -1.295,-6.434 0.372,-11.768 5,-16 z m -1,-12 c 2.186,0.011 3.019,1.011 2.5,3 -3.465,2.463 -6.631,5.296 -9.5,8.5 -4.989,0.499 -9.989,0.666 -15,0.5 0,-1.333 0,-2.667 0,-4 9.402,2.276 16.735,-0.391 22,-8 z m -6,-88 c 7.333,2.3334 10.667,7.3334 10,15 -1.333,0 -2.667,0 -4,0 0.163,-2.3568 -0.003,-4.6902 -0.5,-7 -2.167,-2.1667 -4.333,-4.3333 -6.5,-6.5 0.556,-0.3826 0.889,-0.8826 1,-1.5 z m -50,59 c 0.996,-0.086 1.829,0.248 2.5,1 -0.199,6.479 2.801,10.812 9,13 0.551,6.381 4.051,9.381 10.5,9 0,1 0,2 0,3 -2.357,0.163 -4.69,-0.003 -7,-0.5 -4.494,-5.464 -9.328,-10.63 -14.5,-15.5 -0.498,-3.317 -0.665,-6.65 -0.5,-10 z m 44,20 c -7.597,-1.967 -15.597,-2.634 -24,-2 -0.237,-1.291 0.096,-2.291 1,-3 9.339,0.166 18.673,0 28,-0.5 2.259,-1.715 4.426,-3.548 6.5,-5.5 1.365,1.093 1.699,2.426 1,4 -5.884,3.014 -9.051,7.681 -9.5,14 -1,0 -2,0 -3,0 0,-2.333 0,-4.667 0,-7 z m -4,-17 c 7,0 14,0 21,0 0,1 0,2 0,3 -7,0 -14,0 -21,0 -1.333,-1 -1.333,-2 0,-3 z m -29,-6 c 1,0 2,0 3,0 1.312,7.168 5.645,10.168 13,9 0,1 0,2 0,3 -3.018,0.165 -6.018,-0.002 -9,-0.5 -2.5,-2.5 -5,-5 -7.5,-7.5 -0.579,-1.428 -0.412,-2.762 0.5,-4 z m 20,-12 c 2.742,3.911 6.242,6.911 10.5,9 0.483,0.948 0.649,1.948 0.5,3 -1.699,0.16 -3.366,-0.006 -5,-0.5 -3,-3 -6,-6 -9,-9 -0.937,-0.692 -1.603,-0.525 -2,0.5 -1.987,0.664 -3.654,1.831 -5,3.5 -5.287,1.688 -9.287,0.188 -12,-4.5 -1.896,-0.966 -3.896,-1.299 -6,-1 0,-1 0,-2 0,-3 2.357,-0.163 4.69,0.003 7,0.5 5.333,7.406 10.5,7.24 15.5,-0.5 0.499,-3.9862 0.666,-7.9862 0.5,-12 1,0 2,0 3,0 -0.166,4.3461 0.001,8.6794 0.5,13 0.383,0.556 0.883,0.889 1.5,1 z m 11,-38 c 4.625,6.4595 10.125,12.1262 16.5,17 0.483,0.948 0.649,1.948 0.5,3 -1,0 -2,0 -3,0 -4.83,-5.663 -10.163,-10.8296 -16,-15.5 -2.646,-0.4974 -5.313,-0.6641 -8,-0.5 0,-1.3333 0,-2.6667 0,-4 3.333,0 6.667,0 10,0 z" />
  </g>
  <g
     id="g53"
     style="fill:#ffffff;stroke-width:3.0808"
     transform="matrix(0.32459044,0,0,0.32459044,-29.168107,-5.0066521)">
    <path
       id="path53"
       style="opacity:1;fill:#ffffff;stroke-width:3.0808"
       d="m 283.5,120.5 c 0,21.333 0,42.667 0,64 -6,0 -12,0 -18,0 -2.831,-0.579 -5.164,-1.912 -7,-4 0.473,-1.406 1.473,-2.073 3,-2 5.558,2.791 11.558,3.791 18,3 0,-12.667 0,-25.333 0,-38 -3.667,0 -7.333,0 -11,0 0,-1 0,-2 0,-3 3.871,0.315 7.538,-0.018 11,-1 0.667,-7.843 1.333,-15.843 2,-24 0.67,1.791 1.337,3.458 2,5 z m -13,-27 c 1.294,0.7899 2.461,1.7899 3.5,3 0.667,4.667 0.667,9.333 0,14 -2.357,2.591 -5.191,4.258 -8.5,5 -0.262,-1.478 0.071,-2.811 1,-4 1.761,-0.535 3.094,-1.535 4,-3 1.08,-3.243 1.247,-6.576 0.5,-10 -4.247,-1.7248 -4.414,-3.3914 -0.5,-5 z m -7,12 c -2.779,0.221 -5.446,-0.112 -8,-1 -2.336,-1.504 -4.169,-3.504 -5.5,-6 -0.333,-6 -0.667,-12 -1,-18 -3.73,-0.9601 -7.563,-1.2935 -11.5,-1 0,-1.3333 0,-2.6667 0,-4 4.014,-0.1655 8.014,0.0012 12,0.5 1.167,1.1667 2.333,2.3333 3.5,3.5 0.333,6.3333 0.667,12.6667 1,19 2.574,2.527 5.74,3.694 9.5,3.5 1.184,1.145 1.184,2.312 0,3.5 z m 20,-60 c 0,25 0,50 0,75 -0.663,-1.542 -1.33,-3.209 -2,-5 -0.667,8.157 -1.333,16.157 -2,24 0.167,-28.002 0,-56.002 -0.5,-84 -4.311,-4.3246 -9.477,-5.8246 -15.5,-4.5 -3.485,2.4857 -6.652,5.319 -9.5,8.5 -4.359,-1.5159 -8.525,-1.1826 -12.5,1 -5.054,2.886 -7.887,7.2194 -8.5,13 -8.749,2.2527 -13.249,7.9194 -13.5,17 -9.421,5.243 -11.421,12.576 -6,22 -6.016,5.611 -7.516,12.278 -4.5,20 1.684,1.851 3.517,3.518 5.5,5 2.643,11.832 9.976,16.332 22,13.5 4.248,-2.243 7.914,-5.243 11,-9 2.174,-0.877 3.841,-0.377 5,1.5 0.285,4.621 -1.715,6.121 -6,4.5 -8.919,5.771 -8.919,11.771 0,18 3.703,0.579 7.369,0.412 11,-0.5 -0.837,5.136 0.497,9.469 4,13 -1.527,-0.073 -2.527,0.594 -3,2 -3.175,-2.492 -4.841,-5.826 -5,-10 -10.241,0.093 -16.241,-4.907 -18,-15 -13.111,1.953 -21.444,-3.381 -25,-16 -5.635,-4.223 -7.968,-9.889 -7,-17 0.727,-3.954 2.394,-7.454 5,-10.5 -0.399,-1.728 -1.066,-3.228 -2,-4.5 -0.158,-3.402 0.176,-6.736 1,-10 1.901,-3.5743 4.568,-6.5743 8,-9 0.472,-8.8032 4.805,-14.8032 13,-18 4.384,-11.5232 12.718,-17.0232 25,-16.5 7.055,-8.1767 15.388,-9.6767 25,-4.5 0.929,-1.1888 1.262,-2.5222 1,-4 1.333,0 2.667,0 4,0 z" />
  </g>
  <g
     id="g54"
     style="fill:#d4aa00;stroke-width:3.0808"
     transform="matrix(0.32459044,0,0,0.32459044,-29.168107,-5.0066521)">
    <path
       style="opacity:1;fill:#d4aa00;stroke-width:3.0808"
       fill="#fc931b"
       d="m 440.5,182.5 c 0,7.667 0,15.333 0,23 -4.667,0 -9.333,0 -14,0 0,-7.667 0,-15.333 0,-23 4.667,0 9.333,0 14,0 z"
       id="path54" />
  </g>
  <g
     id="g56"
     transform="matrix(0.53683091,0,0,0.53683091,-30.54767,6.8607706)"
     style="stroke-width:1.86278" />
  <g
     id="g57"
     transform="matrix(0.53683091,0,0,0.53683091,-30.54767,6.8607706)"
     style="stroke-width:1.86278" />
  <g
     id="g58"
     transform="matrix(0.53683091,0,0,0.53683091,-30.54767,6.8607706)"
     style="stroke-width:1.86278" />
  <g
     id="g59"
     transform="matrix(0.53683091,0,0,0.53683091,-30.54767,6.8607706)"
     style="stroke-width:1.86278" />
  <g
     id="g60"
     transform="matrix(0.53683091,0,0,0.53683091,-30.54767,6.8607706)"
     style="stroke-width:1.86278" />
  <g
     id="g61"
     transform="matrix(0.53683091,0,0,0.53683091,-30.54767,6.8607706)"
     style="stroke-width:1.86278" />
  <g
     id="g62"
     transform="matrix(0.53683091,0,0,0.53683091,-30.54767,6.8607706)"
     style="stroke-width:1.86278" />
  <g
     id="g63"
     transform="matrix(0.53683091,0,0,0.53683091,-30.54767,6.8607706)"
     style="stroke-width:1.86278" />
  <g
     id="g64"
     transform="matrix(0.53683091,0,0,0.53683091,-30.54767,6.8607706)"
     style="stroke-width:1.86278" />
  <g
     id="g65"
     transform="matrix(0.53683091,0,0,0.53683091,-30.54767,6.8607706)"
     style="stroke-width:1.86278" />
  <g
     id="g68"
     transform="matrix(0.53683091,0,0,0.53683091,-30.54767,6.8607706)"
     style="stroke-width:1.86278" />
  <g
     id="g69"
     transform="matrix(0.53683091,0,0,0.53683091,-30.54767,6.8607706)"
     style="stroke-width:1.86278" />
  <g
     id="g70"
     transform="matrix(0.53683091,0,0,0.53683091,-30.54767,6.8607706)"
     style="stroke-width:1.86278" />
  <g
     id="g71"
     transform="matrix(0.53683091,0,0,0.53683091,-30.54767,6.8607706)"
     style="stroke-width:1.86278" />
  <g
     id="g73"
     style="fill:#ffffff;stroke-width:1.86278"
     transform="matrix(0.53683091,0,0,0.53683091,-30.54767,6.8607706)" />
  <g
     id="g74"
     transform="matrix(0.53683091,0,0,0.53683091,-30.54767,6.8607706)"
     style="stroke-width:1.86278" />
  <g
     id="g75"
     transform="matrix(0.53683091,0,0,0.53683091,-30.54767,6.8607706)"
     style="stroke-width:1.86278" />
  <g
     id="g76"
     transform="matrix(0.53683091,0,0,0.53683091,-30.54767,6.8607706)"
     style="stroke-width:1.86278" />
  <g
     id="g77"
     transform="matrix(0.53683091,0,0,0.53683091,-30.54767,6.8607706)"
     style="stroke-width:1.86278" />
  <g
     id="g78"
     transform="matrix(0.53683091,0,0,0.53683091,-30.54767,6.8607706)"
     style="stroke-width:1.86278" />
  <g
     id="g79"
     transform="matrix(0.53683091,0,0,0.53683091,-30.54767,6.8607706)"
     style="stroke-width:1.86278" />
  <g
     id="g80"
     transform="matrix(0.53683091,0,0,0.53683091,-30.54767,6.8607706)"
     style="stroke-width:1.86278" />
  <g
     id="g81"
     transform="matrix(0.53683091,0,0,0.53683091,-30.54767,6.8607706)"
     style="stroke-width:1.86278" />
  <g
     id="g82"
     transform="matrix(0.53683091,0,0,0.53683091,-30.54767,6.8607706)"
     style="stroke-width:1.86278" />
  <g
     id="g83"
     transform="matrix(0.53683091,0,0,0.53683091,-30.54767,6.8607706)"
     style="stroke-width:1.86278" />
  <g
     id="g84"
     transform="matrix(0.53683091,0,0,0.53683091,-30.54767,6.8607706)"
     style="stroke-width:1.86278" />
  <g
     id="g85"
     transform="matrix(0.53683091,0,0,0.53683091,-30.54767,6.8607706)"
     style="stroke-width:1.86278" />
  <g
     id="g86"
     transform="matrix(0.53683091,0,0,0.53683091,-30.54767,6.8607706)"
     style="stroke-width:1.86278" />
  <g
     id="g87"
     style="fill:#5555ff;stroke-width:3.0808"
     transform="matrix(0.32459044,0,0,0.32459044,-29.168107,-5.0066521)">
    <path
       id="path87"
       style="opacity:1;fill:#5555ff;stroke-width:3.0808"
       d="m 440.5,217.5 c 0,4.667 0,9.333 0,14 -5.538,43.241 -24.872,79.075 -58,107.5 -29.239,24.725 -61.239,45.225 -96,61.5 0,-5.333 0,-10.667 0,-16 5.692,-2.509 11.026,-5.509 16,-9 33.439,-17.325 63.272,-39.659 89.5,-67 20.847,-24.022 32.014,-52.022 33.5,-84 0.968,-2.107 1.302,-4.441 1,-7 4.667,0 9.333,0 14,0 z m -1,-168 c 0.999,40.1632 1.332,80.497 1,121 -4.667,0 -9.333,0 -14,0 0,-36.333 0,-72.6667 0,-109 -0.065,-0.4382 0.101,-0.7716 0.5,-1 0.333,0.6667 0.667,1.3333 1,2 0.956,-1.0786 1.789,-2.2453 2.5,-3.5 -5.765,-0.3651 -7.098,-2.8651 -4,-7.5 2.667,1 5.333,2 8,3 1.146,-0.6449 2.146,-1.4783 3,-2.5 -1.109,-1.813 -0.442,-2.6463 2,-2.5 z m -153,-33 c 51.032,10.5605 102.032,21.2271 153,32 0,0.3333 0,0.6667 0,1 -2.442,-0.1463 -3.109,0.687 -2,2.5 -0.854,1.0217 -1.854,1.8551 -3,2.5 -2.667,-1 -5.333,-2 -8,-3 -3.098,4.6349 -1.765,7.1349 4,7.5 -0.711,1.2547 -1.544,2.4214 -2.5,3.5 -0.333,-0.6667 -0.667,-1.3333 -1,-2 -0.399,0.2284 -0.565,0.5618 -0.5,1 -0.333,0 -0.667,0 -1,0 -46.092,-10.5214 -92.425,-20.5214 -139,-30 0,-5 0,-10 0,-15 z" />
  </g>
  <g
     id="g88"
     transform="matrix(0.53683091,0,0,0.53683091,-30.54767,6.8607706)"
     style="stroke-width:1.86278" />
  <g
     id="g89"
     transform="matrix(0.53683091,0,0,0.53683091,-30.54767,6.8607706)"
     style="stroke-width:1.86278" />
  <g
     id="g90"
     transform="matrix(0.53683091,0,0,0.53683091,-30.54767,6.8607706)"
     style="stroke-width:1.86278" />
  <g
     id="g92"
     transform="matrix(0.53683091,0,0,0.53683091,-30.54767,6.8607706)"
     style="stroke-width:1.86278" />
  <g
     id="g93"
     transform="matrix(0.32459044,0,0,0.32459044,-29.168107,-5.0066521)"
     style="stroke-width:3.0808">
    <path
       id="path93"
       style="opacity:1;fill:#aaaaff;stroke-width:3.0808"
       d="m 305.5,149.5 c 0.06,-0.543 0.393,-0.876 1,-1 0.999,11.648 1.332,23.314 1,35 0,0.667 -0.333,1 -1,1 0.328,-11.845 -0.005,-23.512 -1,-35 z m 0,0 c 0.995,11.488 1.328,23.155 1,35 -4.667,0 -9.333,0 -14,0 0,-7 0,-14 0,-21 4.305,-4.641 8.639,-9.307 13,-14 z m 43,-17 c 0.06,-0.543 0.393,-0.876 1,-1 1,17.654 1.333,35.321 1,53 -0.333,0 -0.667,0 -1,0 0.33,-17.508 -0.003,-34.841 -1,-52 z m 0,0 c 0.997,17.159 1.33,34.492 1,52 -4.667,0 -9.333,0 -14,0 -0.167,-12.671 0,-25.338 0.5,-38 4.082,-3.576 7.582,-7.576 10.5,-12 1,-0.333 1.667,-1 2,-2 z" />
  </g>
  <g
     id="g94"
     transform="matrix(0.32459044,0,0,0.32459044,-29.168107,-5.0066521)"
     style="stroke-width:3.0808">
    <path
       style="opacity:1;fill:#d5d5ff;stroke-width:3.0808"
       fill="#1ce7d0"
       d="m 313.5,184.5 c -0.316,-15.078 0.017,-30.078 1,-45 0.923,-0.803 1.923,-0.97 3,-0.5 3.5,2.833 7,5.667 10.5,8.5 0.5,12.329 0.667,24.662 0.5,37 -5,0 -10,0 -15,0 z"
       id="path94" />
  </g>
  <g
     id="g95"
     transform="matrix(0.53683091,0,0,0.53683091,-30.54767,6.8607706)"
     style="stroke-width:1.86278" />
  <g
     id="g96"
     transform="matrix(0.53683091,0,0,0.53683091,-30.54767,6.8607706)"
     style="stroke-width:1.86278" />
  <g
     id="g98"
     transform="matrix(0.53683091,0,0,0.53683091,-30.54767,6.8607706)"
     style="stroke-width:1.86278" />
  <g
     id="g99"
     transform="matrix(0.53683091,0,0,0.53683091,-30.54767,6.8607706)"
     style="stroke-width:1.86278" />
  <g
     id="g100"
     transform="matrix(0.53683091,0,0,0.53683091,-30.54767,6.8607706)"
     style="stroke-width:1.86278" />
  <g
     id="g101"
     transform="matrix(0.53683091,0,0,0.53683091,-30.54767,6.8607706)"
     style="stroke-width:1.86278" />
  <g
     id="g102"
     transform="matrix(0.53683091,0,0,0.53683091,-30.54767,6.8607706)"
     style="stroke-width:1.86278" />
  <g
     id="g103"
     transform="matrix(0.53683091,0,0,0.53683091,-30.54767,6.8607706)"
     style="stroke-width:1.86278" />
  <g
     id="g104"
     transform="matrix(0.53683091,0,0,0.53683091,-30.54767,6.8607706)"
     style="stroke-width:1.86278" />
  <g
     id="g105"
     transform="matrix(0.53683091,0,0,0.53683091,-30.54767,6.8607706)"
     style="stroke-width:1.86278" />
  <g
     id="g106"
     transform="matrix(0.53683091,0,0,0.53683091,-30.54767,6.8607706)"
     style="stroke-width:1.86278" />
  <g
     id="g107"
     transform="matrix(0.53683091,0,0,0.53683091,-30.54767,6.8607706)"
     style="stroke-width:1.86278" />
  <g
     id="g108"
     transform="matrix(0.53683091,0,0,0.53683091,-30.54767,6.8607706)"
     style="stroke-width:1.86278" />
  <g
     id="g109"
     transform="matrix(0.53683091,0,0,0.53683091,-30.54767,6.8607706)"
     style="stroke-width:1.86278" />
  <g
     id="g110"
     transform="matrix(0.53683091,0,0,0.53683091,-30.54767,6.8607706)"
     style="stroke-width:1.86278" />
  <g
     id="g111"
     style="fill:#b3b3b3;stroke-width:3.0808"
     transform="matrix(0.32459044,0,0,0.32459044,-29.168107,-5.0066521)">
    <path
       id="path111"
       style="opacity:1;fill:#b3b3b3;stroke-width:3.0808"
       d="m 278.5,324.5 c 0,4.667 0,9.333 0,14 0.166,8.007 0,16.007 -0.5,24 -5.502,-3.083 -10.835,-6.416 -16,-10 -0.499,-4.321 -0.666,-8.654 -0.5,-13 3.618,-2.032 7.451,-3.699 11.5,-5 1.44,0.648 2.94,0.981 4.5,1 -0.315,-3.871 0.018,-7.538 1,-11 z m 2,42 c -1.55,-0.941 -3.216,-1.607 -5,-2 -5.269,-3.308 -10.602,-6.642 -16,-10 -0.989,-3.607 -1.323,-7.274 -1,-11 0.828,-6.487 1.328,-13.154 1.5,-20 0.175,4.519 0.675,8.853 1.5,13 0,1 0,2 0,3 -0.166,4.346 10e-4,8.679 0.5,13 5.165,3.584 10.498,6.917 16,10 0.5,-7.993 0.666,-15.993 0.5,-24 0.828,-6.487 1.328,-13.154 1.5,-20 0.5,15.997 0.667,31.997 0.5,48 z m 34,-67 c 0,18 0,36 0,54 -4.799,3.237 -9.799,6.237 -15,9 -0.789,-0.283 -1.456,-0.783 -2,-1.5 4.5,-3.085 9.167,-5.918 14,-8.5 0.999,-12.649 1.332,-25.316 1,-38 0,-4.333 0,-8.667 0,-13 0.667,-0.667 1.333,-1.333 2,-2 z m -2,15 c 0.332,12.684 -10e-4,25.351 -1,38 -4.833,2.582 -9.5,5.415 -14,8.5 0.544,0.717 1.211,1.217 2,1.5 -0.342,0.838 -1.008,1.172 -2,1 -0.311,-0.978 -0.978,-1.645 -2,-2 -0.998,-8.641 -1.331,-17.308 -1,-26 1.137,3.319 3.303,4.319 6.5,3 3.692,0.594 7.025,1.928 10,4 0.499,-5.657 0.666,-11.324 0.5,-17 -0.315,-3.871 0.018,-7.538 1,-11 z m -20,4 c 0.667,2 1.333,4 2,6 0,3.667 0,7.333 0,11 -0.331,8.692 0.002,17.359 1,26 1.022,0.355 1.689,1.022 2,2 0,0.667 -0.333,1 -1,1 -1.333,0.667 -2.667,1.333 -4,2 0,-16 0,-32 0,-48 z m 2,0 c 0.65,1.947 1.817,3.613 3.5,5 3.848,-0.97 7.514,-1.636 11,-2 0.934,1.358 1.768,2.692 2.5,4 0.166,5.676 -10e-4,11.343 -0.5,17 -2.975,-2.072 -6.308,-3.406 -10,-4 -3.197,1.319 -5.363,0.319 -6.5,-3 0,-3.667 0,-7.333 0,-11 0,-2 0,-4 0,-6 z m -16,-6 c 0,4 0,8 0,12 -0.982,3.462 -1.315,7.129 -1,11 -1.56,-0.019 -3.06,-0.352 -4.5,-1 -4.049,1.301 -7.882,2.968 -11.5,5 0,-1 0,-2 0,-3 0,-5 0,-10 0,-15 0.768,-0.763 1.268,-1.763 1.5,-3 0.414,0.457 0.914,0.791 1.5,1 3.058,-1.641 6.392,-2.474 10,-2.5 1.786,-1.196 3.119,-2.696 4,-4.5 z m 2,-118 c 1.333,57.333 1.333,114.667 0,172 0.167,-16.003 0,-32.003 -0.5,-48 -0.172,6.846 -0.672,13.513 -1.5,20 0,-4.667 0,-9.333 0,-14 0,-4 0,-8 0,-12 0,-4 0,-8 0,-12 0,-15.667 0,-31.333 0,-47 0,-2.333 0,-4.667 0,-7 0.809,1.792 1.309,3.792 1.5,6 0.5,-19.33 0.667,-38.664 0.5,-58 z m 31,102 c 0.165,3.682 -10e-4,7.348 -0.5,11 -4.631,-1.188 -9.464,-0.855 -14.5,1 -0.995,-5.628 -1.329,-11.294 -1,-17 6.164,-1.081 11.497,0.586 16,5 z m 1,-26 c 0,10.333 0,20.667 0,31 0,4.333 0,8.667 0,13 -0.982,3.462 -1.315,7.129 -1,11 -0.732,-1.308 -1.566,-2.642 -2.5,-4 -3.486,0.364 -7.152,1.03 -11,2 -1.683,-1.387 -2.85,-3.053 -3.5,-5 0,-10.333 0,-20.667 0,-31 0.934,1.068 1.268,2.401 1,4 -0.329,5.706 0.005,11.372 1,17 5.036,-1.855 9.869,-2.188 14.5,-1 0.499,-3.652 0.665,-7.318 0.5,-11 -0.326,-8.849 0.007,-17.516 1,-26 z m -34,30 c 0,4 0,8 0,12 -0.881,1.804 -2.214,3.304 -4,4.5 -3.608,0.026 -6.942,0.859 -10,2.5 -0.586,-0.209 -1.086,-0.543 -1.5,-1 -0.232,1.237 -0.732,2.237 -1.5,3 0,-6.333 0,-12.667 0,-19 0.658,-0.898 1.324,-1.898 2,-3 4.241,1.405 8.574,2.405 13,3 0.682,-0.743 1.349,-1.409 2,-2 z m 89,-28 c -17.159,0.997 -34.492,1.33 -52,1 0.331,26.839 -0.002,53.505 -1,80 0,-18 0,-36 0,-54 0,-9 0,-18 0,-27 17.667,0 35.333,0 53,0 z m -159,-34 c -0.667,26 -1.333,52 -2,78 -0.333,-26.342 0,-52.675 1,-79 0.607,0.124 0.94,0.457 1,1 z m 86,-15 c 0,4.333 0,8.667 0,13 0,9 0,18 0,27 0,8 0,16 0,24 0,10.333 0,20.667 0,31 0,2 0,4 0,6 -0.667,-2 -1.333,-4 -2,-6 0,-27.667 0,-55.333 0,-83 0.667,-4 1.333,-8 2,-12 z m -16,30 c 0,15.667 0,31.333 0,47 -0.651,0.591 -1.318,1.257 -2,2 -4.426,-0.595 -8.759,-1.595 -13,-3 -0.676,1.102 -1.342,2.102 -2,3 0.009,-1.808 -0.491,-3.475 -1.5,-5 -2.43,-1.922 -4.263,-4.255 -5.5,-7 4.228,0.541 8.394,0.541 12.5,0 1.434,0.43 2.601,1.264 3.5,2.5 2.466,0.665 4.633,1.165 6.5,1.5 0.5,-10.995 0.667,-21.995 0.5,-33 -4.833,0.273 -9.833,0.273 -15,0 0.268,1.599 -0.066,2.932 -1,4 0,-5 0,-10 0,-15 5.002,-0.653 10.002,-0.986 15,-1 0.672,1.449 1.339,2.782 2,4 z m 101,-2 c -4,7 -8,14 -12,21 -17.667,0 -35.333,0 -53,0 0,9 0,18 0,27 -0.667,0.667 -1.333,1.333 -2,2 0,-10.333 0,-20.667 0,-31 18,0 36,0 54,0 1.309,-3.293 2.642,-6.626 4,-10 1.816,-1.618 3.149,-3.618 4,-6 0.838,-0.342 1.172,-1.008 1,-2 1.068,-0.934 2.401,-1.268 4,-1 z m -176,5 c -1.06,1.543 -2.56,2.543 -4.5,3 -1.646,-1.641 -2.646,-1.307 -3,1 -2.781,-0.369 -5.448,-0.369 -8,0 -0.667,6.333 -0.667,12.667 0,19 0.317,-1.801 0.984,-2.134 2,-1 3.675,-1.292 7.008,-3.292 10,-6 1.016,1.134 1.683,0.801 2,-1 0.232,1.237 0.732,2.237 1.5,3 0,11.333 0,22.667 0,34 -5.996,-5.163 -11.496,-10.83 -16.5,-17 -0.5,-17.33 -0.667,-34.663 -0.5,-52 0.814,-2.131 1.314,-4.464 1.5,-7 0.5,1.167 1.333,2 2.5,2.5 3.283,1.023 6.616,1.857 10,2.5 1.147,-0.318 1.981,-0.984 2.5,-2 0.5,6.992 0.666,13.992 0.5,21 z m 167,4 c -1.358,3.374 -2.691,6.707 -4,10 -18,0 -36,0 -54,0 -0.993,8.484 -1.326,17.151 -1,26 -4.503,-4.414 -9.836,-6.081 -16,-5 0.268,-1.599 -0.066,-2.932 -1,-4 0,-8 0,-16 0,-24 0.904,-0.709 1.237,-1.709 1,-3 0.916,0.482 1.916,0.815 3,1 5.695,-1.268 11.362,-2.601 17,-4 6.276,1.384 12.609,2.384 19,3 10.286,-0.954 20.453,-1.621 30.5,-2 1.725,0.964 3.559,1.631 5.5,2 z m -126,-9 c 5.636,6.477 11.136,13.144 16.5,20 0.495,-1.973 0.662,-3.973 0.5,-6 0.934,-1.068 1.268,-2.401 1,-4 5.167,0.273 10.167,0.273 15,0 0.167,11.005 0,22.005 -0.5,33 -1.867,-0.335 -4.034,-0.835 -6.5,-1.5 -0.899,-1.236 -2.066,-2.07 -3.5,-2.5 -4.106,0.541 -8.272,0.541 -12.5,0 -10.043,-11.08 -19.377,-22.747 -28,-35 0.508,-1.733 1.341,-2.066 2.5,-1 5.108,-2.374 10.275,-3.374 15.5,-3 z m -41,5 c 0,6 0,12 0,18 -0.768,-0.763 -1.268,-1.763 -1.5,-3 -0.317,1.801 -0.984,2.134 -2,1 -2.992,2.708 -6.325,4.708 -10,6 -1.016,-1.134 -1.683,-0.801 -2,1 -0.667,-6.333 -0.667,-12.667 0,-19 2.552,-0.369 5.219,-0.369 8,0 0.354,-2.307 1.354,-2.641 3,-1 1.94,-0.457 3.44,-1.457 4.5,-3 z m -19,-62 c -0.167,11.338 0,22.672 0.5,34 0.21,-1.558 0.71,-2.891 1.5,-4 0,5 0,10 0,15 -0.167,17.337 0,34.67 0.5,52 5.004,6.17 10.504,11.837 16.5,17 0.837,-25.594 1.337,-51.928 1.5,-79 2.364,3.19 4.864,6.19 7.5,9 4.697,5.691 9.363,11.358 14,17 8.623,12.253 17.957,23.92 28,35 1.237,2.745 3.07,5.078 5.5,7 1.009,1.525 1.509,3.192 1.5,5 0,6.333 0,12.667 0,19 0,5 0,10 0,15 -0.825,-4.147 -1.325,-8.481 -1.5,-13 -0.172,6.846 -0.672,13.513 -1.5,20 0.167,-14.67 0,-29.337 -0.5,-44 -16.508,-20.364 -33.008,-40.697 -49.5,-61 -0.06,-0.543 -0.393,-0.876 -1,-1 -1,26.325 -1.333,52.658 -1,79 -7.634,-7.803 -15.134,-15.803 -22.5,-24 -0.831,-32.836 -0.664,-65.503 0.5,-98 z m 40,31 c 1,0 2,0 3,0 9.667,12 19.333,24 29,36 0.283,0.789 0.783,1.456 1.5,2 0.497,-2.646 0.664,-5.313 0.5,-8 0.617,0.111 1.117,0.444 1.5,1 0.17,-8.843 0.67,-17.51 1.5,-26 0,6.667 0,13.333 0,20 0,5 0,10 0,15 0.162,2.027 -0.005,4.027 -0.5,6 -5.364,-6.856 -10.864,-13.523 -16.5,-20 -4.344,-5.373 -8.677,-10.706 -13,-16 -2.333,-3.333 -4.667,-6.667 -7,-10 z m 88,27 c 20.667,0.667 41.333,1.333 62,2 -0.851,2.382 -2.184,4.382 -4,6 -1.941,-0.369 -3.775,-1.036 -5.5,-2 -10.047,0.379 -20.214,1.046 -30.5,2 -6.391,-0.616 -12.724,-1.616 -19,-3 -5.638,1.399 -11.305,2.732 -17,4 -1.084,-0.185 -2.084,-0.518 -3,-1 -0.165,-3.35 0.002,-6.683 0.5,-10 0.725,0.559 1.558,0.892 2.5,1 4.226,-0.57 8.392,-1.237 12.5,-2 0.232,1.237 0.732,2.237 1.5,3 z m 0,0 c 21,0 42,0 63,0 0.172,0.992 -0.162,1.658 -1,2 -20.667,-0.667 -41.333,-1.333 -62,-2 z m 92,-38 c -29,0.667 -58,1.333 -87,2 -1.291,-0.237 -2.291,0.096 -3,1 0,11 0,22 0,33 21.84,-0.331 43.506,0.003 65,1 -1.599,-0.268 -2.932,0.066 -4,1 -21,0 -42,0 -63,0 0,-4 0,-8 0,-12 0,-8.667 0,-17.333 0,-26 30.667,0 61.333,0 92,0 z m -90,3 c 0.333,0 0.667,0 1,0 0,10.667 0,21.333 0,32 21.677,-0.333 43.344,0 65,1 -0.124,0.607 -0.457,0.94 -1,1 -21.494,-0.997 -43.16,-1.331 -65,-1 0,-11 0,-22 0,-33 z m -53,13 c 1.769,0.921 3.435,2.088 5,3.5 3.887,0.239 7.554,1.072 11,2.5 -0.295,2.235 0.039,4.235 1,6 0,1.333 0,2.667 0,4 0,2.333 0,4.667 0,7 -0.661,-1.218 -1.328,-2.551 -2,-4 -4.998,0.014 -9.998,0.347 -15,1 0,-6.667 0,-13.333 0,-20 z m -3,-36 c 0,20.333 0,40.667 0,61 0.164,2.687 -0.003,5.354 -0.5,8 -0.717,-0.544 -1.217,-1.211 -1.5,-2 0.667,-22.333 1.333,-44.667 2,-67 z m -27,41 c 4.323,5.294 8.656,10.627 13,16 -5.225,-0.374 -10.392,0.626 -15.5,3 -1.159,-1.066 -1.992,-0.733 -2.5,1 -4.637,-5.642 -9.303,-11.309 -14,-17 1.122,-1.447 2.622,-2.447 4.5,-3 2.13,-0.087 4.297,-0.087 6.5,0 0.978,-0.477 1.811,-1.143 2.5,-2 1.725,0.964 3.559,1.631 5.5,2 z m 81,5 c 0,4 0,8 0,12 -0.768,-0.763 -1.268,-1.763 -1.5,-3 -4.108,0.763 -8.274,1.43 -12.5,2 -0.942,-0.108 -1.775,-0.441 -2.5,-1 -0.498,3.317 -0.665,6.65 -0.5,10 0.237,1.291 -0.096,2.291 -1,3 0,-9 0,-18 0,-27 0.973,-2.448 1.306,-5.115 1,-8 2.992,1.319 5.992,1.319 9,0 1.82,0.149 3.32,0.816 4.5,2 0.915,-0.828 1.581,-1.828 2,-3 0.175,4.519 0.675,8.853 1.5,13 z m -91,-18 c 0.667,1.333 1.667,2.333 3,3 2.333,3.333 4.667,6.667 7,10 -1.941,-0.369 -3.775,-1.036 -5.5,-2 -0.689,0.857 -1.522,1.523 -2.5,2 -2.203,-0.087 -4.37,-0.087 -6.5,0 -1.878,0.553 -3.378,1.553 -4.5,3 -2.636,-2.81 -5.136,-5.81 -7.5,-9 -0.163,27.072 -0.663,53.406 -1.5,79 0,-11.333 0,-22.667 0,-34 0,-6 0,-12 0,-18 0.166,-7.008 0,-14.008 -0.5,-21 -0.519,1.016 -1.353,1.682 -2.5,2 -3.384,-0.643 -6.717,-1.477 -10,-2.5 -1.167,-0.5 -2,-1.333 -2.5,-2.5 -0.186,2.536 -0.686,4.869 -1.5,7 0,-5 0,-10 0,-15 0,-0.333 0,-0.667 0,-1 0.934,-1.068 1.268,-2.401 1,-4 11.04,-0.023 22.373,0.977 34,3 z m 57,-2 c 0,7.333 0,14.667 0,22 -0.961,-1.765 -1.295,-3.765 -1,-6 -3.446,-1.428 -7.113,-2.261 -11,-2.5 -1.565,-1.412 -3.231,-2.579 -5,-3.5 0,-4.333 0,-8.667 0,-13 0.722,0.418 1.222,1.084 1.5,2 4.422,-2.218 9.088,-3.552 14,-4 0.198,1.882 0.698,3.548 1.5,5 z m 132,-6 c 0.16,-1.699 -0.006,-3.366 -0.5,-5 -0.408,1.91 -1.575,2.91 -3.5,3 -3.36,-1.412 -6.86,-2.412 -10.5,-3 -18.098,0.484 -36.932,1.151 -56.5,2 -0.692,-0.525 -1.192,-1.192 -1.5,-2 -3.704,1.385 -7.537,2.385 -11.5,3 -5.884,-1.824 -11.884,-2.324 -18,-1.5 -3.554,2.353 -7.387,4.186 -11.5,5.5 -0.333,-0.333 -0.667,-0.667 -1,-1 -0.278,0.916 -0.778,1.582 -1.5,2 0,-6.667 0,-13.333 0,-20 39,0 78,0 117,0 0.322,5.858 -0.011,11.525 -1,17 z m 3,-20 c 0.333,0 0.667,0 1,0 0,7.667 0,15.333 0,23 -33,0 -66,0 -99,0 -0.333,0 -0.667,0 -1,0 0.709,-0.904 1.709,-1.237 3,-1 32,0 64,0 96,0 0,-7 0,-14 0,-21 -40.333,0 -80.667,0 -121,0 0,13.333 0,26.667 0,40 0,27.667 0,55.333 0,83 0,16 0,32 0,48 -0.999,-57.164 -1.332,-114.498 -1,-172 40.667,0 81.333,0 122,0 z m -96,22 c 29,-0.667 58,-1.333 87,-2 2,0 4,0 6,0 0.989,-5.475 1.322,-11.142 1,-17 -39,0 -78,0 -117,0 0,6.667 0,13.333 0,20 0,2 0,4 0,6 -0.667,4 -1.333,8 -2,12 0,-13.333 0,-26.667 0,-40 40.333,0 80.667,0 121,0 0,7 0,14 0,21 -32,0 -64,0 -96,0 z m -39,4 c -0.802,-1.452 -1.302,-3.118 -1.5,-5 -4.912,0.448 -9.578,1.782 -14,4 -0.278,-0.916 -0.778,-1.582 -1.5,-2 0,-6.667 0,-13.333 0,-20 5.667,0 11.333,0 17,0 0,7.667 0,15.333 0,23 z m -20,-26 c 7.333,0 14.667,0 22,0 0.167,19.336 0,38.67 -0.5,58 -0.191,-2.208 -0.691,-4.208 -1.5,-6 0,-1.333 0,-2.667 0,-4 0,-7.333 0,-14.667 0,-22 0,-7.667 0,-15.333 0,-23 -5.667,0 -11.333,0 -17,0 0,6.667 0,13.333 0,20 0,4.333 0,8.667 0,13 -0.83,8.49 -1.33,17.157 -1.5,26 -0.383,-0.556 -0.883,-0.889 -1.5,-1 0,-20.333 0,-40.667 0,-61 z m -37,28 c -11.627,-2.023 -22.96,-3.023 -34,-3 0.268,1.599 -0.066,2.932 -1,4 0,-8.667 0,-17.333 0,-26 5.011,-0.166 10.011,0.001 15,0.5 6.879,8.041 13.546,16.207 20,24.5 z m 189,-8 c -2,0 -4,0 -6,0 -30.667,0 -61.333,0 -92,0 0,8.667 0,17.333 0,26 -0.825,-4.147 -1.325,-8.481 -1.5,-13 -0.419,1.172 -1.085,2.172 -2,3 -1.18,-1.184 -2.68,-1.851 -4.5,-2 -3.008,1.319 -6.008,1.319 -9,0 0.306,2.885 -0.027,5.552 -1,8 0,-4.333 0,-8.667 0,-13 0,-2 0,-4 0,-6 0.722,-0.418 1.222,-1.084 1.5,-2 0.333,0.333 0.667,0.667 1,1 4.113,-1.314 7.946,-3.147 11.5,-5.5 6.116,-0.824 12.116,-0.324 18,1.5 3.963,-0.615 7.796,-1.615 11.5,-3 0.308,0.808 0.808,1.475 1.5,2 19.568,-0.849 38.402,-1.516 56.5,-2 3.64,0.588 7.14,1.588 10.5,3 1.925,-0.09 3.092,-1.09 3.5,-3 0.494,1.634 0.66,3.301 0.5,5 z m -226,-20 c 6.342,-0.166 12.675,0 19,0.5 8.214,10.042 16.214,20.209 24,30.5 -1,0 -2,0 -3,0 -1.333,-0.667 -2.333,-1.667 -3,-3 -6.454,-8.293 -13.121,-16.459 -20,-24.5 -4.989,-0.499 -9.989,-0.666 -15,-0.5 0,8.667 0,17.333 0,26 0,0.333 0,0.667 0,1 -0.79,1.109 -1.29,2.442 -1.5,4 -0.5,-11.328 -0.667,-22.662 -0.5,-34 z" />
  </g>
  <g
     id="g112"
     style="fill:#ffffff;stroke-width:3.0808"
     transform="matrix(0.32459044,0,0,0.32459044,-29.168107,-5.0066521)">
    <path
       id="path112"
       style="opacity:1;fill:#ffffff;stroke-width:3.0808"
       d="m 208.5,335.5 c 18.809,14.242 38.476,27.242 59,39 6.141,3.572 12.474,6.905 19,10 0,5.333 0,10.667 0,16 -28.445,-12.831 -54.778,-28.831 -79,-48 0.43,-3.362 -0.57,-6.195 -3,-8.5 3.443,-0.221 3.776,-1.221 1,-3 0.924,-0.85 0.924,-1.85 0,-3 0.63,-1.31 1.63,-2.144 3,-2.5 z m -22,-21 c 7.333,7 14.667,14 22,21 -1.37,0.356 -2.37,1.19 -3,2.5 0.924,1.15 0.924,2.15 0,3 2.776,1.779 2.443,2.779 -1,3 2.43,2.305 3.43,5.138 3,8.5 -6,-4.01 -11.667,-8.51 -17,-13.5 -4.204,-4.036 -8.204,-8.202 -12,-12.5 0.086,-0.996 -0.248,-1.829 -1,-2.5 1.238,0.077 2.238,-0.089 3,-0.5 -0.776,-1.856 -2.109,-3.189 -4,-4 0.895,-5.906 3.229,-6.573 7,-2 0.641,-1.493 1.641,-2.493 3,-3 z m -23,-30 c 6.869,10.546 14.536,20.546 23,30 -1.359,0.507 -2.359,1.507 -3,3 -3.771,-4.573 -6.105,-3.906 -7,2 1.891,0.811 3.224,2.144 4,4 -0.762,0.411 -1.762,0.577 -3,0.5 0.752,0.671 1.086,1.504 1,2.5 -6.387,-6.054 -12.054,-12.721 -17,-20 1.287,-1.268 2.287,-0.935 3,1 1.239,-1.507 0.905,-2.674 -1,-3.5 1.801,-0.317 2.134,-0.984 1,-2 0.59,-1.509 1.256,-3.009 2,-4.5 1.109,1.09 2.109,1.09 3,0 -1.128,-0.762 -2.295,-1.429 -3.5,-2 -0.617,-0.949 -0.451,-1.782 0.5,-2.5 -3.602,-1.997 -4.602,-4.831 -3,-8.5 z m -11,-27 c 3.35,9.046 7.016,18.046 11,27 -1.602,3.669 -0.602,6.503 3,8.5 -0.951,0.718 -1.117,1.551 -0.5,2.5 1.205,0.571 2.372,1.238 3.5,2 -0.891,1.09 -1.891,1.09 -3,0 -0.744,1.491 -1.41,2.991 -2,4.5 1.134,1.016 0.801,1.683 -1,2 1.905,0.826 2.239,1.993 1,3.5 -0.713,-1.935 -1.713,-2.268 -3,-1 -7.474,-9.277 -13.141,-19.611 -17,-31 0.275,-2.342 1.108,-2.342 2.5,0 1.53,-1.42 3.363,-2.42 5.5,-3 -0.59,-1.299 -1.59,-2.132 -3,-2.5 1.723,-0.523 3.056,-1.523 4,-3 -1.073,-1.416 -1.073,-2.75 0,-4 -0.667,-0.333 -1.333,-0.667 -2,-1 0.88,-1.356 1.214,-2.856 1,-4.5 z m -3,-14 c 0.745,4.727 1.745,9.394 3,14 0.214,1.644 -0.12,3.144 -1,4.5 0.667,0.333 1.333,0.667 2,1 -1.073,1.25 -1.073,2.584 0,4 -0.944,1.477 -2.277,2.477 -4,3 1.41,0.368 2.41,1.201 3,2.5 -2.137,0.58 -3.97,1.58 -5.5,3 -1.392,-2.342 -2.225,-2.342 -2.5,0 -1.86,-3.583 -3.527,-7.249 -5,-11 -1.934,-7.972 -3.768,-15.972 -5.5,-24 -1.339,-22.31 -1.839,-44.644 -1.5,-67 4.667,0 9.333,0 14,0 -0.167,18.67 0,37.336 0.5,56 1.16,4.611 1.993,9.277 2.5,14 z m 11,-171 c 4.176,-0.6693 5.509,0.8307 4,4.5 -1.634,0.4935 -3.301,0.6602 -5,0.5 -0.134,-1.7915 0.199,-3.4582 1,-5 z m -8,39 c -6.667,0 -13.333,0 -20,0 0,-1.333 0,-2.667 0,-4 6.675,0.166 13.342,0 20,-0.5 7.77,-6.73 10.27,-15.23 7.5,-25.5 -1.376,-1.2051 -2.542,-2.5384 -3.5,-4 -0.18,-6.3197 2.82,-8.8197 9,-7.5 3.931,3.5064 3.931,7.0064 0,10.5 -0.667,6.6667 -1.333,13.3333 -2,20 -3.894,3.445 -7.56,7.112 -11,11 z m -11,-64 c 3.41,-0.0429 6.743,0.4571 10,1.5 -1.537,1.1096 -2.203,2.6096 -2,4.5 -1.175,-0.219 -2.175,0.1143 -3,1 1.325,2.0919 2.991,3.7586 5,5 -1.419,0.9511 -3.085,1.2845 -5,1 0,12 0,24 0,36 -4.667,0 -9.333,0 -14,0 0,-15.6667 0,-31.3333 0,-47 2.811,-0.975 5.811,-1.6417 9,-2 z m 55,-12 c -0.898,0.6577 -1.898,1.3243 -3,2 1.141,0.9255 1.141,1.7588 0,2.5 0.667,0.3333 1.333,0.6667 2,1 -0.667,1.6667 -1.333,3.3333 -2,5 0.808,0.3076 1.475,0.8076 2,1.5 -2.165,1.207 -4.165,2.5403 -6,4 -5.49,1.1723 -10.823,2.5056 -16,4 -1,0 -2,0 -3,0 -1.333,0 -2.667,0 -4,0 0.149,-1.052 -0.017,-2.052 -0.5,-3 -1.53,-1.136 -2.863,-2.136 -4,-3 -0.495,-1.9727 -0.662,-3.9727 -0.5,-6 1.291,0.2373 2.291,-0.096 3,-1 10.587,-2.6463 21.253,-4.9796 32,-7 z m -32,7 c -0.709,0.904 -1.709,1.2373 -3,1 -0.162,2.0273 0.005,4.0273 0.5,6 1.137,0.864 2.47,1.864 4,3 0.483,0.948 0.649,1.948 0.5,3 1.333,0 2.667,0 4,0 -6.157,1.642 -12.491,2.9754 -19,4 -2.009,-1.2414 -3.675,-2.9081 -5,-5 0.825,-0.8857 1.825,-1.219 3,-1 -0.203,-1.8904 0.463,-3.3904 2,-4.5 -3.257,-1.0429 -6.59,-1.5429 -10,-1.5 7.413,-2.2846 15.08,-3.9513 23,-5 z m 59,-13 c -2.091,1.3006 -4.091,2.8006 -6,4.5 0.647,1.6095 1.48,3.1095 2.5,4.5 0.718,-0.9506 1.551,-1.1172 2.5,-0.5 -1.76,0.9653 -2.094,2.132 -1,3.5 0.667,-0.6667 1.333,-1.3333 2,-2 3.631,0.8521 7.298,1.5188 11,2 -14.797,3.697 -29.797,7.0303 -45,10 1.835,-1.4597 3.835,-2.793 6,-4 -0.525,-0.6924 -1.192,-1.1924 -2,-1.5 0.667,-1.6667 1.333,-3.3333 2,-5 -0.667,-0.3333 -1.333,-0.6667 -2,-1 1.141,-0.7412 1.141,-1.5745 0,-2.5 1.102,-0.6757 2.102,-1.3423 3,-2 8.902,-2.4111 17.902,-4.4111 27,-6 z m 63,-13 c 0,5 0,10 0,15 -17.373,3.1242 -34.706,6.4576 -52,10 -3.702,-0.4812 -7.369,-1.1479 -11,-2 -0.667,0.6667 -1.333,1.3333 -2,2 -1.094,-1.368 -0.76,-2.5347 1,-3.5 -0.949,-0.6172 -1.782,-0.4506 -2.5,0.5 -1.02,-1.3905 -1.853,-2.8905 -2.5,-4.5 1.909,-1.6994 3.909,-3.1994 6,-4.5 20.858,-4.8664 41.858,-9.1998 63,-13 z m -121,100 c 3.85,0.201 4.85,2.034 3,5.5 -3.963,0.118 -4.963,-1.716 -3,-5.5 z m -34,6 c -0.237,-1.291 0.096,-2.291 1,-3 9.333,0 18.667,0 28,0 -0.107,-2.403 0.893,-4.236 3,-5.5 6.833,-1.167 9.667,1.667 8.5,8.5 -3.353,3.755 -6.853,3.922 -10.5,0.5 -9.994,-0.5 -19.994,-0.666 -30,-0.5 z m 28,90 c 5.675,0.36 6.342,2.36 2,6 -1.783,-1.523 -2.449,-3.523 -2,-6 z m 2,-41 c 0.283,0.789 0.783,1.456 1.5,2 0.167,12.347 0.667,24.68 1.5,37 0.978,0.477 1.811,1.143 2.5,2 1.335,4.108 0.168,7.108 -3.5,9 -1.699,0.16 -3.366,-0.006 -5,-0.5 -3.952,-3.588 -3.952,-7.088 0,-10.5 1.166,-11.986 1.333,-23.986 0.5,-36 -4.167,-4.167 -8.333,-8.333 -12.5,-12.5 -4.989,-0.499 -9.989,-0.666 -15,-0.5 0,-1 0,-2 0,-3 5.676,-0.166 11.343,0.001 17,0.5 4.202,4.37 8.536,8.537 13,12.5 z m 23,-17 c 3.638,-0.763 5.138,0.57 4.5,4 -4.223,1.489 -5.723,0.155 -4.5,-4 z m -26,-9 c 3.956,2.288 7.289,5.288 10,9 4.183,1.311 8.516,1.311 13,0 3.004,-4.955 6.504,-5.288 10.5,-1 1.123,3.456 0.29,6.29 -2.5,8.5 -3.768,1.209 -6.768,0.209 -9,-3 -3.986,-0.499 -7.986,-0.666 -12,-0.5 -3.798,-3.296 -7.464,-6.796 -11,-10.5 -8.327,-0.5 -16.66,-0.666 -25,-0.5 8.269,-1.97 16.935,-2.636 26,-2 z m 11,-14 c 4.659,-0.485 5.992,1.348 4,5.5 -1.284,0.684 -2.451,0.517 -3.5,-0.5 -0.494,-1.634 -0.66,-3.301 -0.5,-5 z m 8,6 c -1.676,2.334 -4.009,3.334 -7,3 -1.884,-0.212 -3.217,-1.212 -4,-3 -11.314,-0.999 -22.647,-1.332 -34,-1 0,-1 0,-2 0,-3 3.125,-0.979 6.458,-1.313 10,-1 7.674,0.166 15.341,0 23,-0.5 1,-1 2,-2 3,-3 7.312,-1.683 10.312,1.151 9,8.5 z m -19,8 c -9.065,-0.636 -17.731,0.03 -26,2 -0.904,-0.709 -1.237,-1.709 -1,-3 9.182,-0.327 18.182,0.007 27,1 z" />
  </g>
  <g
     id="g113"
     style="fill:#ffffff;stroke-width:1.86278"
     transform="matrix(0.53683091,0,0,0.53683091,-30.54767,6.8607706)" />
  <g
     id="g114"
     style="fill:#ffffff;stroke-width:1.86278"
     transform="matrix(0.53683091,0,0,0.53683091,-30.54767,6.8607706)" />
  <g
     id="g115"
     style="fill:#ffffff;stroke-width:1.86278"
     transform="matrix(0.53683091,0,0,0.53683091,-30.54767,6.8607706)" />
  <g
     id="g116"
     style="fill:#ffffff;stroke-width:1.86278"
     transform="matrix(0.53683091,0,0,0.53683091,-30.54767,6.8607706)" />
  <g
     id="g117"
     style="fill:#ffffff;stroke-width:1.86278"
     transform="matrix(0.53683091,0,0,0.53683091,-30.54767,6.8607706)" />
  <g
     id="g118"
     style="fill:#ffffff;stroke-width:1.86278"
     transform="matrix(0.53683091,0,0,0.53683091,-30.54767,6.8607706)" />
  <g
     id="g119"
     style="fill:#ffffff;stroke-width:1.86278"
     transform="matrix(0.53683091,0,0,0.53683091,-30.54767,6.8607706)" />
  <g
     id="g120"
     style="fill:#ffffff;stroke-width:1.86278"
     transform="matrix(0.53683091,0,0,0.53683091,-30.54767,6.8607706)" />
  <g
     id="g121"
     style="fill:#ffffff;stroke-width:1.86278"
     transform="matrix(0.53683091,0,0,0.53683091,-30.54767,6.8607706)" />
  <g
     id="g122"
     style="fill:#ffffff;stroke-width:1.86278"
     transform="matrix(0.53683091,0,0,0.53683091,-30.54767,6.8607706)" />
  <g
     id="g123"
     style="fill:#ffffff;stroke-width:1.86278"
     transform="matrix(0.53683091,0,0,0.53683091,-30.54767,6.8607706)" />
  <g
     id="g124"
     style="fill:#ffffff;stroke-width:1.86278"
     transform="matrix(0.53683091,0,0,0.53683091,-30.54767,6.8607706)" />
  <g
     id="g125"
     style="fill:#ffffff;stroke-width:1.86278"
     transform="matrix(0.53683091,0,0,0.53683091,-30.54767,6.8607706)" />
  <g
     id="g126"
     style="fill:#ffffff;stroke-width:1.86278"
     transform="matrix(0.53683091,0,0,0.53683091,-30.54767,6.8607706)" />
  <g
     id="g127"
     style="fill:#ffffff;stroke-width:1.86278"
     transform="matrix(0.53683091,0,0,0.53683091,-30.54767,6.8607706)" />
  <g
     id="g128"
     style="fill:#ffffff;stroke-width:1.86278"
     transform="matrix(0.53683091,0,0,0.53683091,-30.54767,6.8607706)" />
  <g
     id="g129"
     style="fill:#ffffff;stroke-width:1.86278"
     transform="matrix(0.53683091,0,0,0.53683091,-30.54767,6.8607706)" />
  <g
     id="g130"
     style="fill:#ffffff;stroke-width:1.86278"
     transform="matrix(0.53683091,0,0,0.53683091,-30.54767,6.8607706)" />
  <g
     id="g131"
     style="fill:#ffffff;stroke-width:1.86278"
     transform="matrix(0.53683091,0,0,0.53683091,-30.54767,6.8607706)" />
  <g
     id="g132"
     style="fill:#ffffff;stroke-width:1.86278"
     transform="matrix(0.53683091,0,0,0.53683091,-30.54767,6.8607706)" />
  <g
     id="g133"
     style="fill:#ffffff;stroke-width:1.86278"
     transform="matrix(0.53683091,0,0,0.53683091,-30.54767,6.8607706)" />
  <g
     id="g134"
     style="fill:#ffffff;stroke-width:1.86278"
     transform="matrix(0.53683091,0,0,0.53683091,-30.54767,6.8607706)" />
  <g
     id="g135"
     style="fill:#ffffff;stroke-width:1.86278"
     transform="matrix(0.53683091,0,0,0.53683091,-30.54767,6.8607706)" />
  <g
     id="g136"
     style="fill:#ffffff;stroke-width:1.86278"
     transform="matrix(0.53683091,0,0,0.53683091,-30.54767,6.8607706)" />
  <g
     id="g137"
     style="fill:#ffffff;stroke-width:1.86278"
     transform="matrix(0.53683091,0,0,0.53683091,-30.54767,6.8607706)" />
  <g
     id="g138"
     style="fill:#ffffff;stroke-width:1.86278"
     transform="matrix(0.53683091,0,0,0.53683091,-30.54767,6.8607706)" />
  <g
     id="g139"
     style="fill:#ffffff;stroke-width:1.86278"
     transform="matrix(0.53683091,0,0,0.53683091,-30.54767,6.8607706)" />
  <g
     id="g140"
     style="fill:#ffffff;stroke-width:1.86278"
     transform="matrix(0.53683091,0,0,0.53683091,-30.54767,6.8607706)" />
  <g
     id="g141"
     style="fill:#ffffff;stroke-width:1.86278"
     transform="matrix(0.53683091,0,0,0.53683091,-30.54767,6.8607706)" />
  <g
     id="g142"
     style="fill:#ffffff;stroke-width:1.86278"
     transform="matrix(0.53683091,0,0,0.53683091,-30.54767,6.8607706)" />
  <g
     id="g145"
     style="fill:#ffffff;stroke-width:1.86278"
     transform="matrix(0.53683091,0,0,0.53683091,-30.54767,6.8607706)" />
</svg>
